<?xml version="1.0" encoding="utf-8"?>
<!-- Generator: Adobe Illustrator 15.0.0, SVG Export Plug-In  -->
<!DOCTYPE svg PUBLIC "-//W3C//DTD SVG 1.1//EN" "http://www.w3.org/Graphics/SVG/1.1/DTD/svg11.dtd" [
	<!ENTITY ns_flows "http://ns.adobe.com/Flows/1.0/">
]>
<svg version="1.1"
	 xmlns="http://www.w3.org/2000/svg" xmlns:xlink="http://www.w3.org/1999/xlink" xmlns:a="http://ns.adobe.com/AdobeSVGViewerExtensions/3.0/"
	 x="0px" y="0px" width="1024px" height="173px" viewBox="-32 -23.869 1024 173"
	 overflow="visible" enable-background="new -32 -23.869 1024 173" xml:space="preserve">
<defs>
</defs>
<g>
	<rect x="15.548" y="53.384" fill="none" width="928.904" height="43.5"/>
	<text transform="matrix(1 0 0 1 15.5483 67.0952)"><tspan x="0" y="0" fill="#231F20" font-family="'Roboto-Regular'" font-size="18">This is a note about the text. Lorem ipsum dolor sit amet, consectetur adipiscing elit. Curabitur placerat sollicitudin </tspan><tspan x="0" y="21.6" fill="#231F20" font-family="'Roboto-Regular'" font-size="18">consectetur. Proin viverra ligula dolor, et luctus purus rutrum tincidunt. Quisque et pellentesque.</tspan></text>
</g>
<text transform="matrix(1 0 0 1 62.5298 32.5029)" fill="#231F20" font-family="'Roboto-Bold'" font-size="32">Aug 31, 2013          1:20 pm</text>
<g>
	<path fill="#00AEEF" d="M783.259,3.539c0-0.55,0.45-1,1-1h23.417c0.55,0,1,0.45,1,1v19.924c0,0.55-0.397,1.211-0.883,1.469
		l-10.945,5.807c-0.486,0.258-1.281,0.258-1.767,0l-10.938-5.805c-0.486-0.258-0.883-0.919-0.883-1.469V3.539z"/>
</g>
<polygon fill="#A7A9AC" points="908.333,28.204 905.782,25.461 919.201,9.206 932.62,25.461 930.069,28.204 919.201,15.039 "/>
<path id="magnifier-icon_6_" fill="#A7A9AC" d="M871.587,28.077l-7.79-7.789c1.139-1.795,1.799-3.923,1.799-6.202
	c0-6.4-5.207-11.607-11.607-11.607s-11.607,5.207-11.607,11.607c0,6.4,5.207,11.608,11.607,11.608c2.166,0,4.194-0.597,5.932-1.634
	l7.841,7.842L871.587,28.077z M846.708,14.086c0-4.014,3.266-7.28,7.281-7.28s7.281,3.267,7.281,7.28c0,4.015-3.266,7.28-7.281,7.28
	S846.708,18.102,846.708,14.086z"/>
<path id="calendar-4-icon_6_" fill="#231F20" d="M43.434,6.365c0,0.805-0.653,1.458-1.458,1.458s-1.458-0.652-1.458-1.458V2.694
	c0-0.806,0.653-1.459,1.458-1.459s1.458,0.654,1.458,1.459V6.365z M23.728,2.688c0-0.806-0.654-1.458-1.459-1.458
	c-0.806,0-1.458,0.653-1.458,1.458v3.67c0,0.806,0.653,1.459,1.458,1.459c0.805,0,1.459-0.653,1.459-1.459V2.688z M45.197,4.816
	v1.495c0,1.776-1.445,3.222-3.222,3.222c-1.776,0-3.221-1.445-3.221-3.222V4.816H25.49v1.488c0,1.776-1.445,3.222-3.221,3.222
	c-1.777,0-3.222-1.446-3.222-3.222V4.816h-3.499v28.818h33.073V4.816H45.197z M45.41,30.424H18.758V12.566H45.41V30.424z"/>
<path id="time-icon_4_" fill="#231F20" d="M315.725,19.963l-11.344,0V7.481h3.66v8.823h7.685V19.963z M306.699,3.659
	c-7.237,0-13.093,5.856-13.093,13.092c0,7.237,5.857,13.092,13.093,13.092c7.237,0,13.092-5.856,13.092-13.092
	C319.791,9.515,313.934,3.659,306.699,3.659 M306.699,0c9.251,0,16.751,7.5,16.751,16.751c0,9.252-7.5,16.752-16.751,16.752
	c-9.252,0-16.752-7.5-16.752-16.752C289.947,7.5,297.447,0,306.699,0z"/>
<rect y="112.462" fill="#F1F2F2" width="960" height="36.415"/>
</svg>
