<?xml version="1.0" encoding="utf-8"?>
<!-- Generator: Adobe Illustrator 15.0.0, SVG Export Plug-In  -->
<!DOCTYPE svg PUBLIC "-//W3C//DTD SVG 1.1//EN" "http://www.w3.org/Graphics/SVG/1.1/DTD/svg11.dtd" [
	<!ENTITY ns_flows "http://ns.adobe.com/Flows/1.0/">
]>
<svg version="1.1"
	 xmlns="http://www.w3.org/2000/svg" xmlns:xlink="http://www.w3.org/1999/xlink" xmlns:a="http://ns.adobe.com/AdobeSVGViewerExtensions/3.0/"
	 x="0px" y="0px" width="100px" height="100px" viewBox="-0.516 -0.517 100 100"
	 overflow="visible" enable-background="new -0.516 -0.517 100 100" xml:space="preserve">
<defs>
</defs>
<path fill="#2B3990" d="M63.013,40.151c0.362-0.32,0.363-0.854,0.008-1.182l-8.691-7.907c-0.359-0.328-0.95-0.86-1.314-1.182
	l-0.75-0.67c-0.365-0.322-0.66-0.593-0.66-0.602c0-0.005-0.3-0.276-0.662-0.593l-2.211-1.965c-0.364-0.321-0.659-0.188-0.659,0.299
	v18.275c0,0.483-0.297,0.619-0.659,0.296l-10.53-9.376c-0.363-0.327-0.925-0.293-1.247,0.07l-1.173,1.321
	c-0.324,0.362-0.297,0.922,0.071,1.247l12.031,10.712c0.361,0.326,0.361,0.847,0,1.172L34.534,60.783
	c-0.368,0.322-0.396,0.883-0.071,1.245l1.173,1.321c0.325,0.362,0.884,0.395,1.247,0.071l10.53-9.376
	c0.362-0.324,0.663-0.191,0.663,0.293v18.28c0,0.482,0.294,0.619,0.659,0.294l2.209-1.961c0.363-0.322,0.66-0.593,0.66-0.596
	c0-0.007,0.297-0.279,0.66-0.601l0.753-0.671c0.361-0.322,0.952-0.856,1.312-1.182l8.691-7.908c0.355-0.328,0.354-0.86-0.008-1.18
	l-9.819-8.746c-0.361-0.325-0.361-0.847,0-1.172L63.013,40.151z M57.807,58.906c0.363,0.325,0.363,0.852,0,1.176l-5.542,4.939
	c-0.365,0.322-0.66,0.191-0.66-0.298V54.266c0-0.489,0.295-0.62,0.66-0.298L57.807,58.906z M52.265,44.995
	c-0.365,0.324-0.66,0.191-0.66-0.297V34.238c0-0.486,0.295-0.618,0.66-0.299l5.542,4.943c0.363,0.32,0.363,0.849,0,1.174
	L52.265,44.995z"/>
<path fill="#2B3990" d="M49.484,0C22.155-0.001,0,22.153,0,49.482s22.155,49.484,49.484,49.484s49.483-22.155,49.483-49.484
	S76.813,0,49.484,0z M68.258,60.71c0,9.65-7.897,17.547-17.544,17.547h-2.459c-9.649,0-17.544-7.897-17.544-17.547V38.254
	c0-9.65,7.895-17.544,17.544-17.544h2.459c9.646,0,17.544,7.894,17.544,17.544V60.71z"/>
</svg>
