<?xml version="1.0" encoding="utf-8"?>
<!-- Generator: Adobe Illustrator 15.0.0, SVG Export Plug-In  -->
<!DOCTYPE svg PUBLIC "-//W3C//DTD SVG 1.1//EN" "http://www.w3.org/Graphics/SVG/1.1/DTD/svg11.dtd" [
	<!ENTITY ns_flows "http://ns.adobe.com/Flows/1.0/">
]>
<svg version="1.1"
	 xmlns="http://www.w3.org/2000/svg" xmlns:xlink="http://www.w3.org/1999/xlink" xmlns:a="http://ns.adobe.com/AdobeSVGViewerExtensions/3.0/"
	 x="0px" y="0px" width="60px" height="60px" viewBox="-0.537 -0.538 60 60"
	 overflow="visible" enable-background="new -0.537 -0.538 60 60" xml:space="preserve">
<defs>
</defs>
<path id="compass-5-icon_1_" fill="#231F20" d="M43.756,15.169l-13.389,7.113c-2.146-0.248-4.303,0.455-5.894,2.047
	c-1.579,1.578-2.263,3.718-2.056,5.783l-7.249,13.645l13.638-7.246c2.102,0.211,4.219-0.488,5.789-2.061
	c1.512-1.51,2.308-3.631,2.047-5.892L43.756,15.169z M31.713,31.569c-1.203,1.203-3.153,1.203-4.357,0
	c-1.203-1.203-1.203-3.154,0-4.358c1.203-1.203,3.154-1.203,4.357,0C32.916,28.415,32.916,30.366,31.713,31.569z M29.463,5.722
	c13.121,0,23.741,10.617,23.741,23.74c0,13.121-10.618,23.742-23.741,23.742c-13.121,0-23.742-10.619-23.742-23.742
	C5.721,16.341,16.34,5.722,29.463,5.722 M29.463,0C13.191,0,0,13.19,0,29.462c0,16.272,13.191,29.463,29.463,29.463
	c16.272,0,29.463-13.19,29.463-29.463C58.926,13.19,45.735,0,29.463,0z M29.463,8.585c-1.104,0-1.998,0.895-1.998,1.998
	s0.895,1.998,1.998,1.998s1.998-0.895,1.998-1.998S30.566,8.585,29.463,8.585z M29.463,46.344c-1.104,0-1.998,0.894-1.998,1.997
	c0,1.104,0.895,1.998,1.998,1.998s1.998-0.894,1.998-1.998C31.461,47.237,30.566,46.344,29.463,46.344z M8.586,29.462
	c0,1.104,0.895,1.998,1.998,1.998s1.998-0.895,1.998-1.998s-0.895-1.997-1.998-1.997S8.586,28.358,8.586,29.462z M46.344,29.462
	c0,1.104,0.895,1.998,1.998,1.998s1.998-0.895,1.998-1.998s-0.895-1.997-1.998-1.997S46.344,28.358,46.344,29.462z"/>
</svg>
