<?xml version="1.0" encoding="utf-8"?>
<!-- Generator: Adobe Illustrator 15.0.0, SVG Export Plug-In  -->
<!DOCTYPE svg PUBLIC "-//W3C//DTD SVG 1.1//EN" "http://www.w3.org/Graphics/SVG/1.1/DTD/svg11.dtd" [
	<!ENTITY ns_flows "http://ns.adobe.com/Flows/1.0/">
]>
<svg version="1.1"
	 xmlns="http://www.w3.org/2000/svg" xmlns:xlink="http://www.w3.org/1999/xlink" xmlns:a="http://ns.adobe.com/AdobeSVGViewerExtensions/3.0/"
	 x="0px" y="0px" width="100px" height="100px" viewBox="-0.516 -0.516 100 100"
	 overflow="visible" enable-background="new -0.516 -0.516 100 100" xml:space="preserve">
<defs>
</defs>
<path fill="#39B54A" d="M49.485,59.685c-0.906,0-1.713,0.573-2.015,1.428l-3.562,10.123h11.15l-3.562-10.123
	C51.196,60.258,50.392,59.685,49.485,59.685z"/>
<path fill="#39B54A" d="M49.484,0C22.155,0,0,22.155,0,49.483c0,27.33,22.155,49.485,49.484,49.485s49.484-22.155,49.484-49.484
	S76.813,0,49.484,0z M58.195,33.594l3.9-3.904c2.909,2.91,4.708,6.928,4.708,11.366c0,4.438-1.799,8.456-4.708,11.364l-3.9-3.902
	c1.911-1.909,3.093-4.55,3.093-7.462C61.288,38.14,60.106,35.503,58.195,33.594z M40.774,33.593
	c-1.911,1.91-3.092,4.547-3.092,7.463c0,2.912,1.181,5.553,3.092,7.463l-3.902,3.901c-2.908-2.908-4.707-6.927-4.707-11.364
	c0-4.438,1.799-8.456,4.707-11.366L40.774,33.593z M29.55,59.742c-4.782-4.782-7.739-11.39-7.739-18.686
	c0-7.297,2.957-13.906,7.739-18.687l3.869,3.867c-3.793,3.794-6.139,9.033-6.139,14.819c0,5.785,2.346,11.025,6.139,14.819
	L29.55,59.742z M58.638,81.412l-2.319-6.593H42.649l-2.318,6.593h-6.082L45.61,49.124c0.422-1.2,0.113-2.541-0.793-3.438
	c-1.195-1.181-1.937-2.818-1.937-4.63c0-3.595,2.916-6.511,6.512-6.511c3.595,0,6.509,2.916,6.509,6.511
	c0,1.764-0.701,3.366-1.844,4.538c-0.873,0.896-1.162,2.215-0.746,3.395l11.41,32.423H58.638z M69.419,59.742l-3.868-3.866
	c3.792-3.794,6.138-9.034,6.138-14.819c0-5.786-2.346-11.025-6.138-14.819l3.868-3.867c4.783,4.78,7.74,11.391,7.74,18.687
	S74.202,54.959,69.419,59.742z"/>
</svg>
