<?xml version="1.0" encoding="utf-8"?>
<!-- Generator: Adobe Illustrator 15.0.0, SVG Export Plug-In  -->
<!DOCTYPE svg PUBLIC "-//W3C//DTD SVG 1.1//EN" "http://www.w3.org/Graphics/SVG/1.1/DTD/svg11.dtd" [
	<!ENTITY ns_flows "http://ns.adobe.com/Flows/1.0/">
]>
<svg version="1.1"
	 xmlns="http://www.w3.org/2000/svg" xmlns:xlink="http://www.w3.org/1999/xlink" xmlns:a="http://ns.adobe.com/AdobeSVGViewerExtensions/3.0/"
	 x="0px" y="0px" width="60px" height="60px" viewBox="-0.071 -0.072 60 60"
	 overflow="visible" enable-background="new -0.071 -0.072 60 60" xml:space="preserve">
<defs>
</defs>
<path id="brightness-7-icon_1_" fill="#231F20" d="M29.855,15.4c-8.012,0-14.529,6.517-14.529,14.528
	c0,8.011,6.518,14.528,14.529,14.528c8.011,0,14.529-6.518,14.529-14.528C44.385,21.917,37.866,15.4,29.855,15.4z M55.086,32.738
	l4.771-2.81l-4.771-2.81c-2.545-1.501-3.421-4.765-1.965-7.336l2.727-4.819l-5.537-0.048c-2.955-0.026-5.344-2.415-5.369-5.371
	L44.893,4.01l-4.818,2.726c-2.572,1.455-5.836,0.58-7.337-1.965L29.928,0l-2.81,4.771c-1.5,2.545-4.764,3.42-7.337,1.965
	L14.964,4.01l-0.048,5.535c-0.027,2.956-2.416,5.345-5.372,5.371L4.01,14.964l2.725,4.819c1.455,2.571,0.582,5.835-1.965,7.335
	L0,29.929l4.77,2.81c2.547,1.5,3.42,4.765,1.965,7.336L4.01,44.893l5.534,0.049c2.956,0.025,5.346,2.415,5.372,5.37l0.048,5.536
	l4.817-2.726c2.573-1.456,5.837-0.581,7.337,1.966l2.81,4.77l2.81-4.77c1.501-2.547,4.765-3.422,7.337-1.966l4.818,2.726
	l0.049-5.536c0.025-2.955,2.414-5.345,5.369-5.37l5.537-0.049l-2.727-4.817C51.665,37.503,52.541,34.238,55.086,32.738z
	 M29.855,48.815c-10.414,0-18.887-8.473-18.887-18.887c0-10.415,8.473-18.887,18.887-18.887s18.887,8.473,18.887,18.887
	S40.27,48.815,29.855,48.815z"/>
</svg>
