<?xml version="1.0" encoding="utf-8"?>
<!-- Generator: Adobe Illustrator 15.0.0, SVG Export Plug-In  -->
<!DOCTYPE svg PUBLIC "-//W3C//DTD SVG 1.1//EN" "http://www.w3.org/Graphics/SVG/1.1/DTD/svg11.dtd" [
	<!ENTITY ns_flows "http://ns.adobe.com/Flows/1.0/">
]>
<svg version="1.1"
	 xmlns="http://www.w3.org/2000/svg" xmlns:xlink="http://www.w3.org/1999/xlink" xmlns:a="http://ns.adobe.com/AdobeSVGViewerExtensions/3.0/"
	 x="0px" y="0px" width="60px" height="60px" viewBox="-14.153 -15.289 60 60"
	 overflow="visible" enable-background="new -14.153 -15.289 60 60" xml:space="preserve">
<defs>
</defs>
<path id="magnifier-icon_2_" fill="#A7A9AC" d="M29.205,25.598l-7.79-7.789c1.14-1.795,1.8-3.923,1.8-6.202
	C23.215,5.207,18.008,0,11.607,0S0,5.207,0,11.607c0,6.4,5.207,11.608,11.607,11.608c2.165,0,4.193-0.597,5.932-1.634l7.841,7.842
	L29.205,25.598z M4.326,11.607c0-4.014,3.266-7.28,7.281-7.28c4.014,0,7.28,3.267,7.28,7.28c0,4.015-3.267,7.28-7.28,7.28
	C7.592,18.887,4.326,15.622,4.326,11.607z"/>
</svg>
