<?xml version="1.0" encoding="utf-8"?>
<!-- Generator: Adobe Illustrator 15.0.0, SVG Export Plug-In  -->
<!DOCTYPE svg PUBLIC "-//W3C//DTD SVG 1.1//EN" "http://www.w3.org/Graphics/SVG/1.1/DTD/svg11.dtd" [
	<!ENTITY ns_flows "http://ns.adobe.com/Flows/1.0/">
]>
<svg version="1.1"
	 xmlns="http://www.w3.org/2000/svg" xmlns:xlink="http://www.w3.org/1999/xlink" xmlns:a="http://ns.adobe.com/AdobeSVGViewerExtensions/3.0/"
	 x="0px" y="0px" width="60px" height="60px" viewBox="-17.264 -14.848 60 60"
	 overflow="visible" enable-background="new -17.264 -14.848 60 60" xml:space="preserve">
<defs>
</defs>
<g opacity="0.88" enable-background="new    ">
	<path fill="#4AAEE2" d="M0.5,1.5c0-0.55,0.45-1,1-1h23.417c0.55,0,1,0.45,1,1v19.924c0,0.55-0.397,1.211-0.884,1.469l-10.944,5.807
		c-0.486,0.258-1.281,0.258-1.767,0L1.383,22.894C0.897,22.636,0.5,21.975,0.5,21.425V1.5z"/>
	<path fill="none" stroke="#0E6788" stroke-miterlimit="10" d="M0.5,1.5c0-0.55,0.45-1,1-1h23.417c0.55,0,1,0.45,1,1v19.924
		c0,0.55-0.397,1.211-0.884,1.469l-10.944,5.807c-0.486,0.258-1.281,0.258-1.767,0L1.383,22.894C0.897,22.636,0.5,21.975,0.5,21.425
		V1.5z"/>
</g>
</svg>
