<?xml version="1.0" encoding="utf-8"?>
<!-- Generator: Adobe Illustrator 15.0.0, SVG Export Plug-In  -->
<!DOCTYPE svg PUBLIC "-//W3C//DTD SVG 1.1//EN" "http://www.w3.org/Graphics/SVG/1.1/DTD/svg11.dtd" [
	<!ENTITY ns_flows "http://ns.adobe.com/Flows/1.0/">
]>
<svg version="1.1"
	 xmlns="http://www.w3.org/2000/svg" xmlns:xlink="http://www.w3.org/1999/xlink" xmlns:a="http://ns.adobe.com/AdobeSVGViewerExtensions/3.0/"
	 x="0px" y="0px" width="60px" height="60px" viewBox="-13.464 -12.707 60 60"
	 overflow="visible" enable-background="new -13.464 -12.707 60 60" xml:space="preserve">
<defs>
</defs>
<path id="calendar-4-icon_1_" fill="#231F20" d="M27.886,5.136c0,0.805-0.653,1.458-1.458,1.458s-1.458-0.652-1.458-1.458V1.465
	c0-0.806,0.653-1.459,1.458-1.459s1.458,0.654,1.458,1.459V5.136z M8.18,1.458C8.18,0.653,7.525,0,6.721,0
	C5.915,0,5.262,0.653,5.262,1.458v3.67c0,0.806,0.653,1.459,1.458,1.459c0.805,0,1.459-0.653,1.459-1.459V1.458z M29.649,3.587
	v1.495c0,1.776-1.445,3.222-3.222,3.222c-1.776,0-3.221-1.445-3.221-3.222V3.587H9.942v1.488c0,1.776-1.445,3.222-3.221,3.222
	c-1.777,0-3.222-1.446-3.222-3.222V3.587H0v28.818h33.073V3.587H29.649z M29.862,29.195H3.21V11.337h26.651V29.195z"/>
</svg>
